<?xml version="1.0" encoding="UTF-8"?>
<svg width="496px" height="496px" viewBox="0 0 496 496" version="1.1" xmlns="http://www.w3.org/2000/svg" xmlns:xlink="http://www.w3.org/1999/xlink">
    <!-- Generator: Sketch 55.2 (78181) - https://sketchapp.com -->
    <title>noun-dashboard-1135779</title>
    <desc>Created with Sketch.</desc>
    <g id="Page-1" stroke="none" stroke-width="1" fill="none" fill-rule="evenodd">
        <g id="noun-dashboard-1135779" fill="#FFFFFF" fill-rule="nonzero">
            <path d="M10.7,0.469 C4.9305,1.01588 0.524,5.8713 0.551867307,11.672 L0.551867307,484.352 L0.551867307,484.348094 C0.551867307,490.535594 5.5676,495.551094 11.751,495.551094 L484.251,495.551094 C490.4346,495.551094 495.45,490.535494 495.45,484.348094 L495.45,11.668094 L495.45,11.672 C495.45,5.4845 490.4344,0.473 484.251,0.469 L11.751,0.469 C11.39944,0.45728125 11.05178,0.45728125 10.7002,0.469 L10.7,0.469 Z M259.38,22.867 L473.06,22.867 L473.06,331.047 L259.38,331.047 L259.38,22.867 Z M259.38,353.437 L473.06,353.437 L473.06,473.137 L259.38,473.137 L259.38,353.437 Z" id="Shape"></path>
        </g>
    </g>
</svg>