<?xml version="1.0" encoding="UTF-8"?>
<svg width="404px" height="460px" viewBox="0 0 404 460" version="1.1" xmlns="http://www.w3.org/2000/svg" xmlns:xlink="http://www.w3.org/1999/xlink">
    <!-- Generator: Sketch 55.2 (78181) - https://sketchapp.com -->
    <title>noun-notification-1521810</title>
    <desc>Created with Sketch.</desc>
    <g id="Page-1" stroke="none" stroke-width="1" fill="none" fill-rule="evenodd">
        <g id="noun-notification-1521810" fill="#000000" fill-rule="nonzero">
            <path d="M135.92,404 C141.5216,436.48 168.959,460 201.998,460 C235.037,460 263.037,436.48 268.076,404 L361.596,404 C372.795,404 382.877,398.9609 389.596,390.559 C396.3148,382.1606 399.1155,370.957 396.8772,360.321 C394.0764,345.762 381.1972,334.001 366.0762,331.762 L358.7989,224.242 C358.7989,177.203 341.9979,134.082 312.3189,102.722 C310.0806,100.4837 307.8384,98.2415 305.6001,96.0032 C305.04151,95.44461 303.9204,94.3235 303.3618,93.7649 C301.6821,92.6438 300.561,90.9641 298.8813,89.843 C297.7602,89.28441 296.643,88.1633 296.0805,87.6047 C294.4008,86.4836 293.2797,85.3664 291.6,84.2453 C290.4789,83.68671 289.3617,82.5656 288.2406,82.007 C286.5609,80.8859 285.4398,79.7687 283.7601,79.2062 C282.639,78.64761 281.5218,78.0851 280.4007,76.9679 C278.721,75.8468 277.5999,75.2882 275.9202,74.1671 C274.7991,73.60851 273.6819,73.046 271.9983,72.4874 C270.3186,71.92881 269.1975,70.8077 267.5178,70.2491 C266.3967,69.69051 264.717,69.128 263.5959,68.5694 C261.9162,68.01081 260.2365,67.4483 259.1154,66.8897 C257.9943,66.33111 256.3146,65.7686 255.1935,65.21 C254.0724,64.65141 252.9552,64.0889 251.8341,64.0889 C254.0724,56.2491 254.0724,47.8509 252.39269,39.4479 C247.91219,20.4089 232.23269,5.2879 213.19369,1.3699 C198.07269,-1.4309 182.95569,2.491 171.19369,12.0109 C158.31869,22.0809 151.59969,36.0809 151.59969,51.2019 C151.59969,55.6824 152.15828,60.1628 153.27939,64.0809 C151.59969,64.63949 149.91999,65.202 148.24029,65.7606 C146.00199,66.31919 144.31839,66.8817 142.08009,67.9989 C139.84179,68.55749 138.15819,69.6786 135.91989,70.7997 C134.24019,71.9208 131.99799,72.4794 130.31829,73.6005 C128.07999,74.7216 126.39639,75.8388 124.71669,76.9599 C123.03699,78.081 121.35729,78.6396 119.67759,79.7607 C117.99789,80.8818 115.75569,81.999 114.07599,83.6826 C112.39629,84.8037 110.71659,85.9209 109.03689,87.042 C107.35719,88.1631 105.67749,89.8428 103.99779,90.9639 C102.31809,92.085 101.19699,93.2022 99.51729,94.8858 C97.83759,96.5655 96.15789,97.6866 94.47819,99.3663 L90.55629,103.2882 C88.87659,104.9679 87.75549,106.6476 86.07579,108.3273 C84.95469,110.007 83.27499,111.1281 82.15389,112.8078 C80.47419,114.4875 79.35309,116.7297 78.23199,118.4094 C77.11089,120.0891 75.99369,121.2102 74.87259,122.8899 C73.75149,124.5696 72.63429,126.8118 70.95069,128.4915 C69.82959,130.1712 68.71239,131.8509 68.14989,133.5306 C67.02879,135.7689 65.91159,137.4525 64.79049,139.6908 C63.66939,141.3705 63.11079,143.0502 61.98969,144.7299 C60.86859,146.9682 60.30999,149.2104 59.18889,151.4487 C58.6303,153.1284 57.50919,154.8081 56.95059,157.0503 C55.82949,159.2886 55.27089,161.5308 54.71229,163.7691 C54.1537,165.4488 53.59119,167.691 53.03259,169.3707 C52.474,171.609 51.91149,174.4098 51.35289,176.6519 C50.7943,178.3316 50.23179,180.5738 49.67319,182.2535 C49.1146,185.0543 48.55209,187.2926 47.99349,190.0933 C47.4349,191.773 47.4349,194.0152 46.87239,195.6949 C46.3138,198.4957 46.3138,201.8551 45.75129,204.6558 C45.75129,206.3355 45.1927,208.0152 45.1927,209.6949 C45.196607,214.7222 45.196607,219.7649 45.196607,224.2419 L37.356807,331.7619 C22.235807,334.0002 9.356807,345.2029 6.555807,360.3209 C4.317507,370.9619 7.114397,382.1609 13.837007,390.5589 C20.555807,398.9573 31.196007,403.9999 41.837007,403.9999 L124.716007,403.9999 L135.92,404 Z M201.998,437.602 C181.279,437.602 163.357,423.602 158.877,404 L245.678,404 C240.6389,423.602 222.717,437.602 201.998,437.602 Z M184.076,29.362 C189.1151,24.8815 195.275,23.2018 201.998,23.2018 C203.6777,23.2018 205.9199,23.2018 207.5996,23.76039 C218.2406,25.99869 227.2016,34.40139 229.4396,44.47939 C230.5607,49.51849 230.5607,54.55739 228.88101,59.03839 C220.48261,57.35869 210.40101,56.23759 199.76001,56.23759 C191.36161,56.23759 182.40101,57.35869 175.11901,58.47589 C174.55651,56.24149 173.99791,54.00319 173.99791,51.20249 C173.99791,42.80409 177.91981,34.96449 184.07591,29.36249 L184.076,29.362 Z M67.596,225.362 L67.596,224.80341 C67.596,220.32291 67.596,216.40501 68.15459,212.48341 C72.63509,150.88141 108.47459,101.60341 162.79559,85.36341 C168.95579,83.68371 184.63559,79.20321 199.75659,79.20321 C217.67859,79.20321 237.27659,84.24231 241.75659,85.36341 C262.47559,91.52361 280.95559,103.28541 296.07659,118.96541 C321.83859,145.84441 336.39659,183.92641 336.39659,225.36541 L344.23639,331.76541 L59.75639,331.769317 L67.596,225.362 Z M31.756,376.562 C28.9552,373.2026 27.8341,369.2808 28.9552,364.8 C30.0763,358.6398 36.795,353.601 44.0762,353.601 L361.0362,353.601 C368.3174,353.601 374.4772,358.0815 376.1572,364.8 C377.2783,369.2805 376.1572,373.1984 373.3564,376.562 C369.9931,379.9253 365.5126,381.605 361.5944,381.605 L42.3944,381.605 C38.4764,381.605 33.996,379.9253 31.7574,376.562 L31.756,376.562 Z" id="Shape"></path>
            <path d="M321.28,47.84 C316.2409,44.4806 308.96,45.6017 305.6,51.1994 C302.2406,56.2385 303.3617,63.5194 308.9594,66.8794 C320.7214,74.7192 331.3574,83.6804 340.8814,93.7584 C358.2404,111.6804 371.6824,132.9574 381.7604,157.0394 C383.4401,161.5199 387.9206,163.7582 391.8384,163.7582 C393.5181,163.7582 394.6392,163.7582 396.3189,162.6371 C401.9205,160.3988 404.7173,153.6762 402.4791,148.0781 C391.2801,121.1991 376.1591,97.6801 357.1201,78.0781 C346.4791,66.3201 334.7181,56.2381 321.2801,47.8401 L321.28,47.84 Z" id="Path"></path>
            <path d="M7.12,162.08 C8.7997,162.63859 9.9208,163.2011 11.6005,163.2011 C16.081,163.2011 19.9989,160.4003 21.6785,156.4823 C37.3585,118.9623 62.5575,87.6033 94.4795,66.3223 C99.5186,62.9629 101.1983,55.6813 97.8389,50.6423 C94.4795,45.6033 87.1979,43.9235 82.1589,47.2829 C46.3189,70.8029 18.3189,105.5209 0.9599,146.9629 C-1.2823,153.1231 1.51849,159.8419 7.1201,162.0799 L7.12,162.08 Z" id="Path"></path>
        </g>
    </g>
</svg>