<?xml version="1.0" encoding="UTF-8"?>
<svg width="298px" height="297px" viewBox="0 0 298 297" version="1.1" xmlns="http://www.w3.org/2000/svg" xmlns:xlink="http://www.w3.org/1999/xlink">
    <!-- Generator: Sketch 55.2 (78181) - https://sketchapp.com -->
    <title>Shape</title>
    <desc>Created with Sketch.</desc>
    <g id="Page-1" stroke="none" stroke-width="1" fill="none" fill-rule="evenodd">
        <g id="noun-search-4697526" fill="#000000" fill-rule="nonzero">
            <path d="M292.93,268.07 L221.004,196.144 C245.981,162.769 252.274,118.984 237.703,79.934 C223.133,40.875 189.699,11.907 148.965,3.047 C108.231,-5.8124 65.785,6.6525 36.305,36.129 C6.828,65.606 -5.636,108.051 3.223,148.789 C12.082,189.527 41.051,222.957 80.106,237.527 C119.165,252.097 162.95,245.8082 196.326,220.828 L268.252,292.754 C272.7559,296.6134 278.908,297.9259 284.6,296.2423 C290.2875,294.5626 294.737,290.1134 296.416,284.4263 C298.0996,278.7388 296.78319,272.5863 292.9277,268.0783 L292.93,268.07 Z M35.4999969,123 C35.492188,93.785 50.07,66.492 74.352,50.25 C98.637,34.008 129.426,30.957 156.426,42.1172 C183.426,53.2772 203.074,77.1762 208.801,105.8242 C214.5315,134.4722 205.5822,164.0902 184.949,184.7732 C168.554,201.2112 146.297,210.4612 123.078,210.480245 C99.863,210.503637 77.59,201.2966 61.164,184.8862 C44.738,168.4802 35.504,146.2182 35.4999969,122.9992 L35.4999969,123 Z" id="Shape"></path>
        </g>
    </g>
</svg>